<svg width="538" height="351" viewBox="0 0 538 351" fill="none" xmlns="http://www.w3.org/2000/svg">
<rect width="538" height="351" fill="white"/>
<rect x="171.569" y="49" width="80" height="80" transform="rotate(45 171.569 49)" fill="#E0E0E0"/>
<path d="M171.293 42.7071C171.683 43.0976 172.317 43.0976 172.707 42.7071L179.071 36.3431C179.462 35.9526 179.462 35.3195 179.071 34.9289C178.681 34.5384 178.047 34.5384 177.657 34.9289L172 40.5858L166.343 34.9289C165.953 34.5384 165.319 34.5384 164.929 34.9289C164.538 35.3195 164.538 35.9526 164.929 36.3431L171.293 42.7071ZM171 9L171 42L173 42L173 9L171 9Z" fill="#D55E00"/>
<path d="M171.293 208.707C171.683 209.098 172.317 209.098 172.707 208.707L179.071 202.343C179.462 201.953 179.462 201.319 179.071 200.929C178.681 200.538 178.047 200.538 177.657 200.929L172 206.586L166.343 200.929C165.953 200.538 165.319 200.538 164.929 200.929C164.538 201.319 164.538 201.953 164.929 202.343L171.293 208.707ZM171 175L171 208L173 208L173 175L171 175Z" fill="black"/>
<path d="M364.293 208.707C364.683 209.098 365.317 209.098 365.707 208.707L372.071 202.343C372.462 201.953 372.462 201.319 372.071 200.929C371.681 200.538 371.047 200.538 370.657 200.929L365 206.586L359.343 200.929C358.953 200.538 358.319 200.538 357.929 200.929C357.538 201.319 357.538 201.953 357.929 202.343L364.293 208.707ZM364 105L364 208L366 208L366 105L364 105Z" fill="#D55E00"/>
<path d="M171.293 343.707C171.683 344.098 172.317 344.098 172.707 343.707L179.071 337.343C179.462 336.953 179.462 336.319 179.071 335.929C178.681 335.538 178.047 335.538 177.657 335.929L172 341.586L166.343 335.929C165.953 335.538 165.319 335.538 164.929 335.929C164.538 336.319 164.538 336.953 164.929 337.343L171.293 343.707ZM171 310L171 343L173 343L173 310L171 310Z" fill="#D55E00"/>
<rect x="103" y="224" width="139" height="70" fill="#6FCF97"/>
<line x1="242" y1="105" x2="366" y2="105" stroke="#D55E00" stroke-width="2"/>
<line x1="366" y1="322" x2="173" y2="322" stroke="#D55E00" stroke-width="2"/>
<line x1="365" y1="321" x2="365" y2="310" stroke="#D55E00" stroke-width="2"/>
<line x1="172" y1="321" x2="172" y2="310" stroke="black" stroke-width="2"/>
<path d="M182.33 191H181.275L182.377 184.66H183.432L182.33 191ZM183.203 182.346C183.383 182.338 183.531 182.393 183.648 182.51C183.77 182.623 183.83 182.773 183.83 182.961C183.826 183.145 183.766 183.295 183.648 183.412C183.535 183.529 183.387 183.592 183.203 183.6C183.02 183.607 182.869 183.555 182.752 183.441C182.635 183.328 182.578 183.18 182.582 182.996C182.586 182.812 182.645 182.66 182.758 182.539C182.871 182.418 183.02 182.354 183.203 182.346ZM184.58 191L185.541 185.498H184.562L184.709 184.66H185.682L185.787 183.91C185.889 183.273 186.135 182.775 186.525 182.416C186.936 182.041 187.459 181.857 188.096 181.865C188.295 181.865 188.547 181.898 188.852 181.965L188.723 182.85C188.535 182.811 188.346 182.787 188.154 182.779C187.787 182.779 187.488 182.895 187.258 183.125C187.031 183.352 186.891 183.654 186.836 184.033L186.742 184.66H188.055L187.908 185.498H186.596L185.641 191H184.58ZM193.785 190.238C194.164 190.246 194.506 190.137 194.811 189.91C195.115 189.68 195.314 189.379 195.408 189.008L196.41 189.002C196.352 189.4 196.191 189.764 195.93 190.092C195.672 190.42 195.346 190.676 194.951 190.859C194.557 191.043 194.152 191.129 193.738 191.117C193.211 191.109 192.764 190.973 192.396 190.707C192.033 190.438 191.766 190.064 191.594 189.588C191.422 189.107 191.363 188.568 191.418 187.971L191.447 187.678C191.521 187.068 191.699 186.523 191.98 186.043C192.262 185.562 192.629 185.189 193.082 184.924C193.535 184.654 194.035 184.527 194.582 184.543C195.246 184.559 195.777 184.781 196.176 185.211C196.574 185.641 196.773 186.186 196.773 186.846L195.783 186.84C195.775 186.426 195.66 186.092 195.438 185.838C195.215 185.58 194.914 185.443 194.535 185.428C193.984 185.416 193.525 185.621 193.158 186.043C192.795 186.465 192.568 187.055 192.479 187.812L192.461 187.965C192.438 188.215 192.434 188.473 192.449 188.738C192.477 189.195 192.605 189.557 192.836 189.822C193.066 190.088 193.383 190.227 193.785 190.238ZM200.781 184.543C201.312 184.551 201.768 184.695 202.146 184.977C202.525 185.258 202.805 185.646 202.984 186.143C203.168 186.635 203.23 187.174 203.172 187.76L203.16 187.889C203.086 188.506 202.902 189.064 202.609 189.564C202.316 190.061 201.938 190.447 201.473 190.725C201.008 191.002 200.498 191.133 199.943 191.117C199.416 191.109 198.961 190.965 198.578 190.684C198.199 190.402 197.922 190.02 197.746 189.535C197.57 189.051 197.508 188.518 197.559 187.936C197.617 187.279 197.795 186.689 198.092 186.166C198.389 185.643 198.77 185.238 199.234 184.953C199.703 184.664 200.219 184.527 200.781 184.543ZM198.625 187.941C198.598 188.188 198.598 188.443 198.625 188.709C198.664 189.17 198.801 189.537 199.035 189.811C199.273 190.084 199.59 190.227 199.984 190.238C200.336 190.25 200.66 190.164 200.957 189.98C201.254 189.793 201.504 189.512 201.707 189.137C201.91 188.762 202.041 188.346 202.1 187.889C202.131 187.529 202.137 187.227 202.117 186.98C202.07 186.508 201.928 186.135 201.689 185.861C201.451 185.588 201.135 185.443 200.74 185.428C200.193 185.416 199.729 185.631 199.346 186.072C198.963 186.514 198.727 187.092 198.637 187.807L198.625 187.941ZM206.066 184.654L205.914 185.457C206.484 184.832 207.133 184.527 207.859 184.543C208.457 184.559 208.898 184.766 209.184 185.164C209.469 185.562 209.574 186.123 209.5 186.846L208.809 191H207.748L208.445 186.828C208.469 186.637 208.471 186.459 208.451 186.295C208.385 185.748 208.062 185.469 207.484 185.457C206.848 185.445 206.289 185.785 205.809 186.477L205.023 191H203.963L205.064 184.66L206.066 184.654ZM210.748 187.818C210.826 187.174 211.004 186.592 211.281 186.072C211.559 185.553 211.9 185.164 212.307 184.906C212.713 184.648 213.16 184.525 213.648 184.537C214.355 184.553 214.898 184.811 215.277 185.311L215.887 182H216.947L215.389 191H214.422L214.533 190.32C214.033 190.867 213.416 191.133 212.682 191.117C212.096 191.102 211.629 190.873 211.281 190.432C210.934 189.986 210.746 189.391 210.719 188.645C210.707 188.414 210.717 188.139 210.748 187.818ZM211.768 188.428C211.756 188.986 211.855 189.42 212.066 189.729C212.277 190.037 212.586 190.195 212.992 190.203C213.605 190.23 214.15 189.922 214.627 189.277L215.131 186.348C214.896 185.77 214.471 185.473 213.854 185.457C213.436 185.445 213.066 185.572 212.746 185.838C212.43 186.1 212.188 186.469 212.02 186.945C211.855 187.418 211.771 187.912 211.768 188.428ZM218.213 191H217.158L218.26 184.66H219.314L218.213 191ZM219.086 182.346C219.266 182.338 219.414 182.393 219.531 182.51C219.652 182.623 219.713 182.773 219.713 182.961C219.709 183.145 219.648 183.295 219.531 183.412C219.418 183.529 219.27 183.592 219.086 183.6C218.902 183.607 218.752 183.555 218.635 183.441C218.518 183.328 218.461 183.18 218.465 182.996C218.469 182.812 218.527 182.66 218.641 182.539C218.754 182.418 218.902 182.354 219.086 182.346ZM222.748 183.125L222.479 184.66H223.633L223.486 185.498H222.338L221.676 189.441C221.664 189.543 221.662 189.637 221.67 189.723C221.697 190.027 221.863 190.18 222.168 190.18C222.297 190.18 222.469 190.16 222.684 190.121L222.602 191.006C222.348 191.076 222.09 191.111 221.828 191.111C221.406 191.104 221.09 190.949 220.879 190.648C220.668 190.344 220.586 189.936 220.633 189.424L221.277 185.498H220.158L220.305 184.66H221.424L221.693 183.125H222.748ZM224.963 191H223.908L225.01 184.66H226.064L224.963 191ZM225.836 182.346C226.016 182.338 226.164 182.393 226.281 182.51C226.402 182.623 226.463 182.773 226.463 182.961C226.459 183.145 226.398 183.295 226.281 183.412C226.168 183.529 226.02 183.592 225.836 183.6C225.652 183.607 225.502 183.555 225.385 183.441C225.268 183.328 225.211 183.18 225.215 182.996C225.219 182.812 225.277 182.66 225.391 182.539C225.504 182.418 225.652 182.354 225.836 182.346ZM230.219 184.543C230.75 184.551 231.205 184.695 231.584 184.977C231.963 185.258 232.242 185.646 232.422 186.143C232.605 186.635 232.668 187.174 232.609 187.76L232.598 187.889C232.523 188.506 232.34 189.064 232.047 189.564C231.754 190.061 231.375 190.447 230.91 190.725C230.445 191.002 229.936 191.133 229.381 191.117C228.854 191.109 228.398 190.965 228.016 190.684C227.637 190.402 227.359 190.02 227.184 189.535C227.008 189.051 226.945 188.518 226.996 187.936C227.055 187.279 227.232 186.689 227.529 186.166C227.826 185.643 228.207 185.238 228.672 184.953C229.141 184.664 229.656 184.527 230.219 184.543ZM228.062 187.941C228.035 188.188 228.035 188.443 228.062 188.709C228.102 189.17 228.238 189.537 228.473 189.811C228.711 190.084 229.027 190.227 229.422 190.238C229.773 190.25 230.098 190.164 230.395 189.98C230.691 189.793 230.941 189.512 231.145 189.137C231.348 188.762 231.479 188.346 231.537 187.889C231.568 187.529 231.574 187.227 231.555 186.98C231.508 186.508 231.365 186.135 231.127 185.861C230.889 185.588 230.572 185.443 230.178 185.428C229.631 185.416 229.166 185.631 228.783 186.072C228.4 186.514 228.164 187.092 228.074 187.807L228.062 187.941ZM235.504 184.654L235.352 185.457C235.922 184.832 236.57 184.527 237.297 184.543C237.895 184.559 238.336 184.766 238.621 185.164C238.906 185.562 239.012 186.123 238.938 186.846L238.246 191H237.186L237.883 186.828C237.906 186.637 237.908 186.459 237.889 186.295C237.822 185.748 237.5 185.469 236.922 185.457C236.285 185.445 235.727 185.785 235.246 186.477L234.461 191H233.4L234.502 184.66L235.504 184.654ZM243.971 191H242.916L244.018 184.66H245.072L243.971 191ZM244.844 182.346C245.023 182.338 245.172 182.393 245.289 182.51C245.41 182.623 245.471 182.773 245.471 182.961C245.467 183.145 245.406 183.295 245.289 183.412C245.176 183.529 245.027 183.592 244.844 183.6C244.66 183.607 244.51 183.555 244.393 183.441C244.275 183.328 244.219 183.18 244.223 182.996C244.227 182.812 244.285 182.66 244.398 182.539C244.512 182.418 244.66 182.354 244.844 182.346ZM249.631 189.283C249.689 188.846 249.449 188.537 248.91 188.357L247.809 188.035C246.879 187.715 246.43 187.184 246.461 186.441C246.488 185.883 246.742 185.426 247.223 185.07C247.707 184.711 248.275 184.535 248.928 184.543C249.568 184.551 250.088 184.738 250.486 185.105C250.889 185.469 251.082 185.943 251.066 186.529L250.012 186.523C250.02 186.207 249.92 185.949 249.713 185.75C249.506 185.551 249.23 185.447 248.887 185.439C248.52 185.432 248.203 185.521 247.938 185.709C247.691 185.885 247.549 186.115 247.51 186.4C247.459 186.768 247.684 187.035 248.184 187.203L248.717 187.35C249.443 187.537 249.959 187.781 250.264 188.082C250.568 188.383 250.709 188.756 250.686 189.201C250.662 189.596 250.533 189.939 250.299 190.232C250.064 190.525 249.752 190.75 249.361 190.906C248.971 191.059 248.555 191.129 248.113 191.117C247.441 191.109 246.887 190.914 246.449 190.531C246.012 190.145 245.801 189.648 245.816 189.043L246.877 189.049C246.877 189.404 246.99 189.689 247.217 189.904C247.443 190.119 247.754 190.227 248.148 190.227C248.535 190.234 248.869 190.154 249.15 189.986C249.432 189.814 249.592 189.58 249.631 189.283ZM256.797 184.654L256.662 185.363C257.193 184.801 257.836 184.527 258.59 184.543C258.992 184.551 259.332 184.643 259.609 184.818C259.891 184.994 260.084 185.242 260.189 185.562C260.783 184.867 261.484 184.527 262.293 184.543C262.926 184.559 263.393 184.771 263.693 185.182C263.994 185.592 264.105 186.143 264.027 186.834L263.33 191H262.275L262.967 186.822C262.99 186.619 262.99 186.434 262.967 186.266C262.893 185.734 262.545 185.463 261.924 185.451C261.537 185.443 261.186 185.564 260.869 185.814C260.557 186.061 260.355 186.385 260.266 186.787L259.545 191H258.479L259.182 186.828C259.232 186.395 259.166 186.061 258.982 185.826C258.803 185.592 258.521 185.471 258.139 185.463C257.479 185.447 256.953 185.748 256.562 186.365L255.76 191H254.699L255.801 184.66L256.797 184.654ZM267.713 191.117C266.924 191.102 266.307 190.811 265.861 190.244C265.416 189.678 265.229 188.953 265.299 188.07L265.328 187.818C265.395 187.189 265.58 186.615 265.885 186.096C266.193 185.576 266.568 185.186 267.01 184.924C267.451 184.658 267.928 184.531 268.439 184.543C269.092 184.559 269.604 184.775 269.975 185.193C270.346 185.611 270.549 186.178 270.584 186.893C270.596 187.146 270.588 187.4 270.561 187.654L270.496 188.141H266.354C266.283 188.715 266.377 189.203 266.635 189.605C266.896 190.008 267.285 190.217 267.801 190.232C268.426 190.248 269.004 189.967 269.535 189.389L270.145 189.904C269.879 190.287 269.535 190.588 269.113 190.807C268.695 191.021 268.229 191.125 267.713 191.117ZM268.387 185.428C267.949 185.416 267.566 185.564 267.238 185.873C266.914 186.182 266.656 186.641 266.465 187.25L269.547 187.256L269.57 187.162C269.633 186.67 269.553 186.262 269.33 185.938C269.111 185.609 268.797 185.439 268.387 185.428ZM273.994 183.125L273.725 184.66H274.879L274.732 185.498H273.584L272.922 189.441C272.91 189.543 272.908 189.637 272.916 189.723C272.943 190.027 273.109 190.18 273.414 190.18C273.543 190.18 273.715 190.16 273.93 190.121L273.848 191.006C273.594 191.076 273.336 191.111 273.074 191.111C272.652 191.104 272.336 190.949 272.125 190.648C271.914 190.344 271.832 189.936 271.879 189.424L272.523 185.498H271.404L271.551 184.66H272.67L272.939 183.125H273.994Z" fill="black"/>
<path d="M253.33 97H252.275L253.377 90.6602H254.432L253.33 97ZM254.203 88.3457C254.383 88.3379 254.531 88.3926 254.648 88.5098C254.77 88.623 254.83 88.7734 254.83 88.9609C254.826 89.1445 254.766 89.2949 254.648 89.4121C254.535 89.5293 254.387 89.5918 254.203 89.5996C254.02 89.6074 253.869 89.5547 253.752 89.4414C253.635 89.3281 253.578 89.1797 253.582 88.9961C253.586 88.8125 253.645 88.6602 253.758 88.5391C253.871 88.418 254.02 88.3535 254.203 88.3457ZM255.58 97L256.541 91.498H255.562L255.709 90.6602H256.682L256.787 89.9102C256.889 89.2734 257.135 88.7754 257.525 88.416C257.936 88.041 258.459 87.8574 259.096 87.8652C259.295 87.8652 259.547 87.8984 259.852 87.9648L259.723 88.8496C259.535 88.8105 259.346 88.7871 259.154 88.7793C258.787 88.7793 258.488 88.8945 258.258 89.125C258.031 89.3516 257.891 89.6543 257.836 90.0332L257.742 90.6602H259.055L258.908 91.498H257.596L256.641 97H255.58ZM264.785 96.2383C265.164 96.2461 265.506 96.1367 265.811 95.9102C266.115 95.6797 266.314 95.3789 266.408 95.0078L267.41 95.002C267.352 95.4004 267.191 95.7637 266.93 96.0918C266.672 96.4199 266.346 96.6758 265.951 96.8594C265.557 97.043 265.152 97.1289 264.738 97.1172C264.211 97.1094 263.764 96.9727 263.396 96.707C263.033 96.4375 262.766 96.0645 262.594 95.5879C262.422 95.1074 262.363 94.5684 262.418 93.9707L262.447 93.6777C262.521 93.0684 262.699 92.5234 262.98 92.043C263.262 91.5625 263.629 91.1895 264.082 90.9238C264.535 90.6543 265.035 90.5273 265.582 90.543C266.246 90.5586 266.777 90.7812 267.176 91.2109C267.574 91.6406 267.773 92.1855 267.773 92.8457L266.783 92.8398C266.775 92.4258 266.66 92.0918 266.438 91.8379C266.215 91.5801 265.914 91.4434 265.535 91.4277C264.984 91.416 264.525 91.6211 264.158 92.043C263.795 92.4648 263.568 93.0547 263.479 93.8125L263.461 93.9648C263.438 94.2148 263.434 94.4727 263.449 94.7383C263.477 95.1953 263.605 95.5566 263.836 95.8223C264.066 96.0879 264.383 96.2266 264.785 96.2383ZM271.781 90.543C272.312 90.5508 272.768 90.6953 273.146 90.9766C273.525 91.2578 273.805 91.6465 273.984 92.1426C274.168 92.6348 274.23 93.1738 274.172 93.7598L274.16 93.8887C274.086 94.5059 273.902 95.0645 273.609 95.5645C273.316 96.0605 272.938 96.4473 272.473 96.7246C272.008 97.002 271.498 97.1328 270.943 97.1172C270.416 97.1094 269.961 96.9648 269.578 96.6836C269.199 96.4023 268.922 96.0195 268.746 95.5352C268.57 95.0508 268.508 94.5176 268.559 93.9355C268.617 93.2793 268.795 92.6895 269.092 92.166C269.389 91.6426 269.77 91.2383 270.234 90.9531C270.703 90.6641 271.219 90.5273 271.781 90.543ZM269.625 93.9414C269.598 94.1875 269.598 94.4434 269.625 94.709C269.664 95.1699 269.801 95.5371 270.035 95.8105C270.273 96.084 270.59 96.2266 270.984 96.2383C271.336 96.25 271.66 96.1641 271.957 95.9805C272.254 95.793 272.504 95.5117 272.707 95.1367C272.91 94.7617 273.041 94.3457 273.1 93.8887C273.131 93.5293 273.137 93.2266 273.117 92.9805C273.07 92.5078 272.928 92.1348 272.689 91.8613C272.451 91.5879 272.135 91.4434 271.74 91.4277C271.193 91.416 270.729 91.6309 270.346 92.0723C269.963 92.5137 269.727 93.0918 269.637 93.8066L269.625 93.9414ZM277.066 90.6543L276.914 91.457C277.484 90.832 278.133 90.5273 278.859 90.543C279.457 90.5586 279.898 90.7656 280.184 91.1641C280.469 91.5625 280.574 92.123 280.5 92.8457L279.809 97H278.748L279.445 92.8281C279.469 92.6367 279.471 92.459 279.451 92.2949C279.385 91.748 279.062 91.4688 278.484 91.457C277.848 91.4453 277.289 91.7852 276.809 92.4766L276.023 97H274.963L276.064 90.6602L277.066 90.6543ZM281.748 93.8184C281.826 93.1738 282.004 92.5918 282.281 92.0723C282.559 91.5527 282.9 91.1641 283.307 90.9062C283.713 90.6484 284.16 90.5254 284.648 90.5371C285.355 90.5527 285.898 90.8105 286.277 91.3105L286.887 88H287.947L286.389 97H285.422L285.533 96.3203C285.033 96.8672 284.416 97.1328 283.682 97.1172C283.096 97.1016 282.629 96.873 282.281 96.4316C281.934 95.9863 281.746 95.3906 281.719 94.6445C281.707 94.4141 281.717 94.1387 281.748 93.8184ZM282.768 94.4277C282.756 94.9863 282.855 95.4199 283.066 95.7285C283.277 96.0371 283.586 96.1953 283.992 96.2031C284.605 96.2305 285.15 95.9219 285.627 95.2773L286.131 92.3477C285.896 91.7695 285.471 91.4727 284.854 91.457C284.436 91.4453 284.066 91.5723 283.746 91.8379C283.43 92.0996 283.188 92.4688 283.02 92.9453C282.855 93.418 282.771 93.9121 282.768 94.4277ZM289.213 97H288.158L289.26 90.6602H290.314L289.213 97ZM290.086 88.3457C290.266 88.3379 290.414 88.3926 290.531 88.5098C290.652 88.623 290.713 88.7734 290.713 88.9609C290.709 89.1445 290.648 89.2949 290.531 89.4121C290.418 89.5293 290.27 89.5918 290.086 89.5996C289.902 89.6074 289.752 89.5547 289.635 89.4414C289.518 89.3281 289.461 89.1797 289.465 88.9961C289.469 88.8125 289.527 88.6602 289.641 88.5391C289.754 88.418 289.902 88.3535 290.086 88.3457ZM293.748 89.125L293.479 90.6602H294.633L294.486 91.498H293.338L292.676 95.4414C292.664 95.543 292.662 95.6367 292.67 95.7227C292.697 96.0273 292.863 96.1797 293.168 96.1797C293.297 96.1797 293.469 96.1602 293.684 96.1211L293.602 97.0059C293.348 97.0762 293.09 97.1113 292.828 97.1113C292.406 97.1035 292.09 96.9492 291.879 96.6484C291.668 96.3438 291.586 95.9355 291.633 95.4238L292.277 91.498H291.158L291.305 90.6602H292.424L292.693 89.125H293.748ZM295.963 97H294.908L296.01 90.6602H297.064L295.963 97ZM296.836 88.3457C297.016 88.3379 297.164 88.3926 297.281 88.5098C297.402 88.623 297.463 88.7734 297.463 88.9609C297.459 89.1445 297.398 89.2949 297.281 89.4121C297.168 89.5293 297.02 89.5918 296.836 89.5996C296.652 89.6074 296.502 89.5547 296.385 89.4414C296.268 89.3281 296.211 89.1797 296.215 88.9961C296.219 88.8125 296.277 88.6602 296.391 88.5391C296.504 88.418 296.652 88.3535 296.836 88.3457ZM301.219 90.543C301.75 90.5508 302.205 90.6953 302.584 90.9766C302.963 91.2578 303.242 91.6465 303.422 92.1426C303.605 92.6348 303.668 93.1738 303.609 93.7598L303.598 93.8887C303.523 94.5059 303.34 95.0645 303.047 95.5645C302.754 96.0605 302.375 96.4473 301.91 96.7246C301.445 97.002 300.936 97.1328 300.381 97.1172C299.854 97.1094 299.398 96.9648 299.016 96.6836C298.637 96.4023 298.359 96.0195 298.184 95.5352C298.008 95.0508 297.945 94.5176 297.996 93.9355C298.055 93.2793 298.232 92.6895 298.529 92.166C298.826 91.6426 299.207 91.2383 299.672 90.9531C300.141 90.6641 300.656 90.5273 301.219 90.543ZM299.062 93.9414C299.035 94.1875 299.035 94.4434 299.062 94.709C299.102 95.1699 299.238 95.5371 299.473 95.8105C299.711 96.084 300.027 96.2266 300.422 96.2383C300.773 96.25 301.098 96.1641 301.395 95.9805C301.691 95.793 301.941 95.5117 302.145 95.1367C302.348 94.7617 302.479 94.3457 302.537 93.8887C302.568 93.5293 302.574 93.2266 302.555 92.9805C302.508 92.5078 302.365 92.1348 302.127 91.8613C301.889 91.5879 301.572 91.4434 301.178 91.4277C300.631 91.416 300.166 91.6309 299.783 92.0723C299.4 92.5137 299.164 93.0918 299.074 93.8066L299.062 93.9414ZM306.504 90.6543L306.352 91.457C306.922 90.832 307.57 90.5273 308.297 90.543C308.895 90.5586 309.336 90.7656 309.621 91.1641C309.906 91.5625 310.012 92.123 309.938 92.8457L309.246 97H308.186L308.883 92.8281C308.906 92.6367 308.908 92.459 308.889 92.2949C308.822 91.748 308.5 91.4688 307.922 91.457C307.285 91.4453 306.727 91.7852 306.246 92.4766L305.461 97H304.4L305.502 90.6602L306.504 90.6543ZM314.971 97H313.916L315.018 90.6602H316.072L314.971 97ZM315.844 88.3457C316.023 88.3379 316.172 88.3926 316.289 88.5098C316.41 88.623 316.471 88.7734 316.471 88.9609C316.467 89.1445 316.406 89.2949 316.289 89.4121C316.176 89.5293 316.027 89.5918 315.844 89.5996C315.66 89.6074 315.51 89.5547 315.393 89.4414C315.275 89.3281 315.219 89.1797 315.223 88.9961C315.227 88.8125 315.285 88.6602 315.398 88.5391C315.512 88.418 315.66 88.3535 315.844 88.3457ZM320.631 95.2832C320.689 94.8457 320.449 94.5371 319.91 94.3574L318.809 94.0352C317.879 93.7148 317.43 93.1836 317.461 92.4414C317.488 91.8828 317.742 91.4258 318.223 91.0703C318.707 90.7109 319.275 90.5352 319.928 90.543C320.568 90.5508 321.088 90.7383 321.486 91.1055C321.889 91.4688 322.082 91.9434 322.066 92.5293L321.012 92.5234C321.02 92.207 320.92 91.9492 320.713 91.75C320.506 91.5508 320.23 91.4473 319.887 91.4395C319.52 91.4316 319.203 91.5215 318.938 91.709C318.691 91.8848 318.549 92.1152 318.51 92.4004C318.459 92.7676 318.684 93.0352 319.184 93.2031L319.717 93.3496C320.443 93.5371 320.959 93.7812 321.264 94.082C321.568 94.3828 321.709 94.7559 321.686 95.2012C321.662 95.5957 321.533 95.9395 321.299 96.2324C321.064 96.5254 320.752 96.75 320.361 96.9062C319.971 97.0586 319.555 97.1289 319.113 97.1172C318.441 97.1094 317.887 96.9141 317.449 96.5312C317.012 96.1445 316.801 95.6484 316.816 95.043L317.877 95.0488C317.877 95.4043 317.99 95.6895 318.217 95.9043C318.443 96.1191 318.754 96.2266 319.148 96.2266C319.535 96.2344 319.869 96.1543 320.15 95.9863C320.432 95.8145 320.592 95.5801 320.631 95.2832ZM324.867 90.6543L324.715 91.457C325.285 90.832 325.934 90.5273 326.66 90.543C327.258 90.5586 327.699 90.7656 327.984 91.1641C328.27 91.5625 328.375 92.123 328.301 92.8457L327.609 97H326.549L327.246 92.8281C327.27 92.6367 327.271 92.459 327.252 92.2949C327.186 91.748 326.863 91.4688 326.285 91.457C325.648 91.4453 325.09 91.7852 324.609 92.4766L323.824 97H322.764L323.865 90.6602L324.867 90.6543ZM329.982 90.8711L329.396 90.4375C329.857 89.8633 330.135 89.3066 330.229 88.7676L330.363 88H331.406L331.295 88.709C331.154 89.5879 330.717 90.3086 329.982 90.8711ZM333.967 89.125L333.697 90.6602H334.852L334.705 91.498H333.557L332.895 95.4414C332.883 95.543 332.881 95.6367 332.889 95.7227C332.916 96.0273 333.082 96.1797 333.387 96.1797C333.516 96.1797 333.688 96.1602 333.902 96.1211L333.82 97.0059C333.566 97.0762 333.309 97.1113 333.047 97.1113C332.625 97.1035 332.309 96.9492 332.098 96.6484C331.887 96.3438 331.805 95.9355 331.852 95.4238L332.496 91.498H331.377L331.523 90.6602H332.643L332.912 89.125H333.967ZM340.066 90.6543L339.932 91.3633C340.463 90.8008 341.105 90.5273 341.859 90.543C342.262 90.5508 342.602 90.6426 342.879 90.8184C343.16 90.9941 343.354 91.2422 343.459 91.5625C344.053 90.8672 344.754 90.5273 345.562 90.543C346.195 90.5586 346.662 90.7715 346.963 91.1816C347.264 91.5918 347.375 92.1426 347.297 92.834L346.6 97H345.545L346.236 92.8223C346.26 92.6191 346.26 92.4336 346.236 92.2656C346.162 91.7344 345.814 91.4629 345.193 91.4512C344.807 91.4434 344.455 91.5645 344.139 91.8145C343.826 92.0605 343.625 92.3848 343.535 92.7871L342.814 97H341.748L342.451 92.8281C342.502 92.3945 342.436 92.0605 342.252 91.8262C342.072 91.5918 341.791 91.4707 341.408 91.4629C340.748 91.4473 340.223 91.748 339.832 92.3652L339.029 97H337.969L339.07 90.6602L340.066 90.6543ZM350.982 97.1172C350.193 97.1016 349.576 96.8105 349.131 96.2441C348.686 95.6777 348.498 94.9531 348.568 94.0703L348.598 93.8184C348.664 93.1895 348.85 92.6152 349.154 92.0957C349.463 91.5762 349.838 91.1855 350.279 90.9238C350.721 90.6582 351.197 90.5312 351.709 90.543C352.361 90.5586 352.873 90.7754 353.244 91.1934C353.615 91.6113 353.818 92.1777 353.854 92.8926C353.865 93.1465 353.857 93.4004 353.83 93.6543L353.766 94.1406H349.623C349.553 94.7148 349.646 95.2031 349.904 95.6055C350.166 96.0078 350.555 96.2168 351.07 96.2324C351.695 96.248 352.273 95.9668 352.805 95.3887L353.414 95.9043C353.148 96.2871 352.805 96.5879 352.383 96.8066C351.965 97.0215 351.498 97.125 350.982 97.1172ZM351.656 91.4277C351.219 91.416 350.836 91.5645 350.508 91.873C350.184 92.1816 349.926 92.6406 349.734 93.25L352.816 93.2559L352.84 93.1621C352.902 92.6699 352.822 92.2617 352.6 91.9375C352.381 91.6094 352.066 91.4395 351.656 91.4277ZM357.264 89.125L356.994 90.6602H358.148L358.002 91.498H356.854L356.191 95.4414C356.18 95.543 356.178 95.6367 356.186 95.7227C356.213 96.0273 356.379 96.1797 356.684 96.1797C356.812 96.1797 356.984 96.1602 357.199 96.1211L357.117 97.0059C356.863 97.0762 356.605 97.1113 356.344 97.1113C355.922 97.1035 355.605 96.9492 355.395 96.6484C355.184 96.3438 355.102 95.9355 355.148 95.4238L355.793 91.498H354.674L354.82 90.6602H355.939L356.209 89.125H357.264Z" fill="black"/>
<path d="M136.008 103.108H139.944V109H138.564V104.2H136.008V103.108ZM139.152 102.076C138.872 102.076 138.636 101.992 138.444 101.824C138.26 101.656 138.168 101.432 138.168 101.152C138.168 100.872 138.26 100.648 138.444 100.48C138.636 100.304 138.872 100.216 139.152 100.216C139.44 100.216 139.676 100.304 139.86 100.48C140.044 100.648 140.136 100.872 140.136 101.152C140.136 101.432 140.044 101.656 139.86 101.824C139.676 101.992 139.44 102.076 139.152 102.076ZM148.891 101.728C148.675 101.64 148.463 101.576 148.255 101.536C148.055 101.496 147.835 101.476 147.595 101.476C147.139 101.476 146.807 101.588 146.599 101.812C146.399 102.028 146.299 102.344 146.299 102.76V103.108H148.543V104.2H146.299V109H144.931V104.2H143.299V103.168L144.931 103.108V102.784C144.931 102.44 144.979 102.12 145.075 101.824C145.171 101.528 145.319 101.276 145.519 101.068C145.727 100.852 145.987 100.684 146.299 100.564C146.619 100.444 146.995 100.384 147.427 100.384C147.747 100.384 148.051 100.412 148.339 100.468C148.635 100.524 148.915 100.604 149.179 100.708L148.891 101.728ZM155.432 100.141H154.312V109.938H155.432V110.828H153.223V99.25H155.432V100.141ZM158.918 108.232C159.305 108.232 159.643 108.115 159.932 107.881C160.221 107.646 160.381 107.354 160.412 107.002H161.438C161.418 107.365 161.293 107.711 161.062 108.039C160.832 108.367 160.523 108.629 160.137 108.824C159.754 109.02 159.348 109.117 158.918 109.117C158.055 109.117 157.367 108.83 156.855 108.256C156.348 107.678 156.094 106.889 156.094 105.889V105.707C156.094 105.09 156.207 104.541 156.434 104.061C156.66 103.58 156.984 103.207 157.406 102.941C157.832 102.676 158.334 102.543 158.912 102.543C159.623 102.543 160.213 102.756 160.682 103.182C161.154 103.607 161.406 104.16 161.438 104.84H160.412C160.381 104.43 160.225 104.094 159.943 103.832C159.666 103.566 159.322 103.434 158.912 103.434C158.361 103.434 157.934 103.633 157.629 104.031C157.328 104.426 157.178 104.998 157.178 105.748V105.953C157.178 106.684 157.328 107.246 157.629 107.641C157.93 108.035 158.359 108.232 158.918 108.232ZM162.369 105.771C162.369 105.15 162.49 104.592 162.732 104.096C162.979 103.6 163.318 103.217 163.752 102.947C164.189 102.678 164.688 102.543 165.246 102.543C166.109 102.543 166.807 102.842 167.338 103.439C167.873 104.037 168.141 104.832 168.141 105.824V105.9C168.141 106.518 168.021 107.072 167.783 107.564C167.549 108.053 167.211 108.434 166.77 108.707C166.332 108.98 165.828 109.117 165.258 109.117C164.398 109.117 163.701 108.818 163.166 108.221C162.635 107.623 162.369 106.832 162.369 105.848V105.771ZM163.459 105.9C163.459 106.604 163.621 107.168 163.945 107.594C164.273 108.02 164.711 108.232 165.258 108.232C165.809 108.232 166.246 108.018 166.57 107.588C166.895 107.154 167.057 106.549 167.057 105.771C167.057 105.076 166.891 104.514 166.559 104.084C166.23 103.65 165.793 103.434 165.246 103.434C164.711 103.434 164.279 103.646 163.951 104.072C163.623 104.498 163.459 105.107 163.459 105.9ZM170.525 102.66L170.561 103.457C171.045 102.848 171.678 102.543 172.459 102.543C173.799 102.543 174.475 103.299 174.486 104.811V109H173.402V104.805C173.398 104.348 173.293 104.01 173.086 103.791C172.883 103.572 172.564 103.463 172.131 103.463C171.779 103.463 171.471 103.557 171.205 103.744C170.939 103.932 170.732 104.178 170.584 104.482V109H169.5V102.66H170.525ZM175.857 105.777C175.857 104.805 176.088 104.023 176.549 103.434C177.01 102.84 177.613 102.543 178.359 102.543C179.102 102.543 179.689 102.797 180.123 103.305V100H181.207V109H180.211L180.158 108.32C179.725 108.852 179.121 109.117 178.348 109.117C177.613 109.117 177.014 108.816 176.549 108.215C176.088 107.613 175.857 106.828 175.857 105.859V105.777ZM176.941 105.9C176.941 106.619 177.09 107.182 177.387 107.588C177.684 107.994 178.094 108.197 178.617 108.197C179.305 108.197 179.807 107.889 180.123 107.271V104.359C179.799 103.762 179.301 103.463 178.629 103.463C178.098 103.463 177.684 103.668 177.387 104.078C177.09 104.488 176.941 105.096 176.941 105.9ZM184.072 109H182.988V102.66H184.072V109ZM182.9 100.979C182.9 100.803 182.953 100.654 183.059 100.533C183.168 100.412 183.328 100.352 183.539 100.352C183.75 100.352 183.91 100.412 184.02 100.533C184.129 100.654 184.184 100.803 184.184 100.979C184.184 101.154 184.129 101.301 184.02 101.418C183.91 101.535 183.75 101.594 183.539 101.594C183.328 101.594 183.168 101.535 183.059 101.418C182.953 101.301 182.9 101.154 182.9 100.979ZM187.283 101.125V102.66H188.467V103.498H187.283V107.43C187.283 107.684 187.336 107.875 187.441 108.004C187.547 108.129 187.727 108.191 187.98 108.191C188.105 108.191 188.277 108.168 188.496 108.121V109C188.211 109.078 187.934 109.117 187.664 109.117C187.18 109.117 186.814 108.971 186.568 108.678C186.322 108.385 186.199 107.969 186.199 107.43V103.498H185.045V102.66H186.199V101.125H187.283ZM190.916 109H189.832V102.66H190.916V109ZM189.744 100.979C189.744 100.803 189.797 100.654 189.902 100.533C190.012 100.412 190.172 100.352 190.383 100.352C190.594 100.352 190.754 100.412 190.863 100.533C190.973 100.654 191.027 100.803 191.027 100.979C191.027 101.154 190.973 101.301 190.863 101.418C190.754 101.535 190.594 101.594 190.383 101.594C190.172 101.594 190.012 101.535 189.902 101.418C189.797 101.301 189.744 101.154 189.744 100.979ZM192.369 105.771C192.369 105.15 192.49 104.592 192.732 104.096C192.979 103.6 193.318 103.217 193.752 102.947C194.189 102.678 194.688 102.543 195.246 102.543C196.109 102.543 196.807 102.842 197.338 103.439C197.873 104.037 198.141 104.832 198.141 105.824V105.9C198.141 106.518 198.021 107.072 197.783 107.564C197.549 108.053 197.211 108.434 196.77 108.707C196.332 108.98 195.828 109.117 195.258 109.117C194.398 109.117 193.701 108.818 193.166 108.221C192.635 107.623 192.369 106.832 192.369 105.848V105.771ZM193.459 105.9C193.459 106.604 193.621 107.168 193.945 107.594C194.273 108.02 194.711 108.232 195.258 108.232C195.809 108.232 196.246 108.018 196.57 107.588C196.895 107.154 197.057 106.549 197.057 105.771C197.057 105.076 196.891 104.514 196.559 104.084C196.23 103.65 195.793 103.434 195.246 103.434C194.711 103.434 194.279 103.646 193.951 104.072C193.623 104.498 193.459 105.107 193.459 105.9ZM200.525 102.66L200.561 103.457C201.045 102.848 201.678 102.543 202.459 102.543C203.799 102.543 204.475 103.299 204.486 104.811V109H203.402V104.805C203.398 104.348 203.293 104.01 203.086 103.791C202.883 103.572 202.564 103.463 202.131 103.463C201.779 103.463 201.471 103.557 201.205 103.744C200.939 103.932 200.732 104.178 200.584 104.482V109H199.5V102.66H200.525ZM205.354 99.25H207.568V110.828H205.354V109.938H206.484V100.141H205.354V99.25Z" fill="black"/>
<path d="M138.85 247.141H137.73V256.938H138.85V257.828H136.641V246.25H138.85V247.141ZM142.336 255.232C142.723 255.232 143.061 255.115 143.35 254.881C143.639 254.646 143.799 254.354 143.83 254.002H144.855C144.836 254.365 144.711 254.711 144.48 255.039C144.25 255.367 143.941 255.629 143.555 255.824C143.172 256.02 142.766 256.117 142.336 256.117C141.473 256.117 140.785 255.83 140.273 255.256C139.766 254.678 139.512 253.889 139.512 252.889V252.707C139.512 252.09 139.625 251.541 139.852 251.061C140.078 250.58 140.402 250.207 140.824 249.941C141.25 249.676 141.752 249.543 142.33 249.543C143.041 249.543 143.631 249.756 144.1 250.182C144.572 250.607 144.824 251.16 144.855 251.84H143.83C143.799 251.43 143.643 251.094 143.361 250.832C143.084 250.566 142.74 250.434 142.33 250.434C141.779 250.434 141.352 250.633 141.047 251.031C140.746 251.426 140.596 251.998 140.596 252.748V252.953C140.596 253.684 140.746 254.246 141.047 254.641C141.348 255.035 141.777 255.232 142.336 255.232ZM145.787 252.771C145.787 252.15 145.908 251.592 146.15 251.096C146.396 250.6 146.736 250.217 147.17 249.947C147.607 249.678 148.105 249.543 148.664 249.543C149.527 249.543 150.225 249.842 150.756 250.439C151.291 251.037 151.559 251.832 151.559 252.824V252.9C151.559 253.518 151.439 254.072 151.201 254.564C150.967 255.053 150.629 255.434 150.188 255.707C149.75 255.98 149.246 256.117 148.676 256.117C147.816 256.117 147.119 255.818 146.584 255.221C146.053 254.623 145.787 253.832 145.787 252.848V252.771ZM146.877 252.9C146.877 253.604 147.039 254.168 147.363 254.594C147.691 255.02 148.129 255.232 148.676 255.232C149.227 255.232 149.664 255.018 149.988 254.588C150.312 254.154 150.475 253.549 150.475 252.771C150.475 252.076 150.309 251.514 149.977 251.084C149.648 250.65 149.211 250.434 148.664 250.434C148.129 250.434 147.697 250.646 147.369 251.072C147.041 251.498 146.877 252.107 146.877 252.9ZM152.654 252.777C152.654 251.805 152.885 251.023 153.346 250.434C153.807 249.84 154.41 249.543 155.156 249.543C155.898 249.543 156.486 249.797 156.92 250.305V247H158.004V256H157.008L156.955 255.32C156.521 255.852 155.918 256.117 155.145 256.117C154.41 256.117 153.811 255.816 153.346 255.215C152.885 254.613 152.654 253.828 152.654 252.859V252.777ZM153.738 252.9C153.738 253.619 153.887 254.182 154.184 254.588C154.48 254.994 154.891 255.197 155.414 255.197C156.102 255.197 156.604 254.889 156.92 254.271V251.359C156.596 250.762 156.098 250.463 155.426 250.463C154.895 250.463 154.48 250.668 154.184 251.078C153.887 251.488 153.738 252.096 153.738 252.9ZM162.322 256.117C161.463 256.117 160.764 255.836 160.225 255.273C159.686 254.707 159.416 253.951 159.416 253.006V252.807C159.416 252.178 159.535 251.617 159.773 251.125C160.016 250.629 160.352 250.242 160.781 249.965C161.215 249.684 161.684 249.543 162.188 249.543C163.012 249.543 163.652 249.814 164.109 250.357C164.566 250.9 164.795 251.678 164.795 252.689V253.141H160.5C160.516 253.766 160.697 254.271 161.045 254.658C161.396 255.041 161.842 255.232 162.381 255.232C162.764 255.232 163.088 255.154 163.354 254.998C163.619 254.842 163.852 254.635 164.051 254.377L164.713 254.893C164.182 255.709 163.385 256.117 162.322 256.117ZM162.188 250.434C161.75 250.434 161.383 250.594 161.086 250.914C160.789 251.23 160.605 251.676 160.535 252.25H163.711V252.168C163.68 251.617 163.531 251.191 163.266 250.891C163 250.586 162.641 250.434 162.188 250.434ZM170.502 248.125V249.66H171.686V250.498H170.502V254.43C170.502 254.684 170.555 254.875 170.66 255.004C170.766 255.129 170.945 255.191 171.199 255.191C171.324 255.191 171.496 255.168 171.715 255.121V256C171.43 256.078 171.152 256.117 170.883 256.117C170.398 256.117 170.033 255.971 169.787 255.678C169.541 255.385 169.418 254.969 169.418 254.43V250.498H168.264V249.66H169.418V248.125H170.502ZM172.553 252.771C172.553 252.15 172.674 251.592 172.916 251.096C173.162 250.6 173.502 250.217 173.936 249.947C174.373 249.678 174.871 249.543 175.43 249.543C176.293 249.543 176.99 249.842 177.521 250.439C178.057 251.037 178.324 251.832 178.324 252.824V252.9C178.324 253.518 178.205 254.072 177.967 254.564C177.732 255.053 177.395 255.434 176.953 255.707C176.516 255.98 176.012 256.117 175.441 256.117C174.582 256.117 173.885 255.818 173.35 255.221C172.818 254.623 172.553 253.832 172.553 252.848V252.771ZM173.643 252.9C173.643 253.604 173.805 254.168 174.129 254.594C174.457 255.02 174.895 255.232 175.441 255.232C175.992 255.232 176.43 255.018 176.754 254.588C177.078 254.154 177.24 253.549 177.24 252.771C177.24 252.076 177.074 251.514 176.742 251.084C176.414 250.65 175.977 250.434 175.43 250.434C174.895 250.434 174.463 250.646 174.135 251.072C173.807 251.498 173.643 252.107 173.643 252.9ZM185.725 250.633C185.561 250.605 185.383 250.592 185.191 250.592C184.48 250.592 183.998 250.895 183.744 251.5V256H182.66V249.66H183.715L183.732 250.393C184.088 249.826 184.592 249.543 185.244 249.543C185.455 249.543 185.615 249.57 185.725 249.625V250.633ZM190.641 255.373C190.219 255.869 189.6 256.117 188.783 256.117C188.107 256.117 187.592 255.922 187.236 255.531C186.885 255.137 186.707 254.555 186.703 253.785V249.66H187.787V253.756C187.787 254.717 188.178 255.197 188.959 255.197C189.787 255.197 190.338 254.889 190.611 254.271V249.66H191.695V256H190.664L190.641 255.373ZM194.373 249.66L194.408 250.457C194.893 249.848 195.525 249.543 196.307 249.543C197.646 249.543 198.322 250.299 198.334 251.811V256H197.25V251.805C197.246 251.348 197.141 251.01 196.934 250.791C196.73 250.572 196.412 250.463 195.979 250.463C195.627 250.463 195.318 250.557 195.053 250.744C194.787 250.932 194.58 251.178 194.432 251.482V256H193.348V249.66H194.373ZM204.123 256H203.039V249.66H204.123V256ZM202.951 247.979C202.951 247.803 203.004 247.654 203.109 247.533C203.219 247.412 203.379 247.352 203.59 247.352C203.801 247.352 203.961 247.412 204.07 247.533C204.18 247.654 204.234 247.803 204.234 247.979C204.234 248.154 204.18 248.301 204.07 248.418C203.961 248.535 203.801 248.594 203.59 248.594C203.379 248.594 203.219 248.535 203.109 248.418C203.004 248.301 202.951 248.154 202.951 247.979ZM206.396 256V250.498H205.395V249.66H206.396V249.01C206.396 248.33 206.578 247.805 206.941 247.434C207.305 247.062 207.818 246.877 208.482 246.877C208.732 246.877 208.98 246.91 209.227 246.977L209.168 247.855C208.984 247.82 208.789 247.803 208.582 247.803C208.23 247.803 207.959 247.906 207.768 248.113C207.576 248.316 207.48 248.609 207.48 248.992V249.66H208.834V250.498H207.48V256H206.396ZM131.461 269.232C131.848 269.232 132.186 269.115 132.475 268.881C132.764 268.646 132.924 268.354 132.955 268.002H133.98C133.961 268.365 133.836 268.711 133.605 269.039C133.375 269.367 133.066 269.629 132.68 269.824C132.297 270.02 131.891 270.117 131.461 270.117C130.598 270.117 129.91 269.83 129.398 269.256C128.891 268.678 128.637 267.889 128.637 266.889V266.707C128.637 266.09 128.75 265.541 128.977 265.061C129.203 264.58 129.527 264.207 129.949 263.941C130.375 263.676 130.877 263.543 131.455 263.543C132.166 263.543 132.756 263.756 133.225 264.182C133.697 264.607 133.949 265.16 133.98 265.84H132.955C132.924 265.43 132.768 265.094 132.486 264.832C132.209 264.566 131.865 264.434 131.455 264.434C130.904 264.434 130.477 264.633 130.172 265.031C129.871 265.426 129.721 265.998 129.721 266.748V266.953C129.721 267.684 129.871 268.246 130.172 268.641C130.473 269.035 130.902 269.232 131.461 269.232ZM134.912 266.771C134.912 266.15 135.033 265.592 135.275 265.096C135.521 264.6 135.861 264.217 136.295 263.947C136.732 263.678 137.23 263.543 137.789 263.543C138.652 263.543 139.35 263.842 139.881 264.439C140.416 265.037 140.684 265.832 140.684 266.824V266.9C140.684 267.518 140.564 268.072 140.326 268.564C140.092 269.053 139.754 269.434 139.312 269.707C138.875 269.98 138.371 270.117 137.801 270.117C136.941 270.117 136.244 269.818 135.709 269.221C135.178 268.623 134.912 267.832 134.912 266.848V266.771ZM136.002 266.9C136.002 267.604 136.164 268.168 136.488 268.594C136.816 269.02 137.254 269.232 137.801 269.232C138.352 269.232 138.789 269.018 139.113 268.588C139.438 268.154 139.6 267.549 139.6 266.771C139.6 266.076 139.434 265.514 139.102 265.084C138.773 264.65 138.336 264.434 137.789 264.434C137.254 264.434 136.822 264.646 136.494 265.072C136.166 265.498 136.002 266.107 136.002 266.9ZM143.068 263.66L143.104 264.457C143.588 263.848 144.221 263.543 145.002 263.543C146.342 263.543 147.018 264.299 147.029 265.811V270H145.945V265.805C145.941 265.348 145.836 265.01 145.629 264.791C145.426 264.572 145.107 264.463 144.674 264.463C144.322 264.463 144.014 264.557 143.748 264.744C143.482 264.932 143.275 265.178 143.127 265.482V270H142.043V263.66H143.068ZM148.4 266.777C148.4 265.805 148.631 265.023 149.092 264.434C149.553 263.84 150.156 263.543 150.902 263.543C151.645 263.543 152.232 263.797 152.666 264.305V261H153.75V270H152.754L152.701 269.32C152.268 269.852 151.664 270.117 150.891 270.117C150.156 270.117 149.557 269.816 149.092 269.215C148.631 268.613 148.4 267.828 148.4 266.859V266.777ZM149.484 266.9C149.484 267.619 149.633 268.182 149.93 268.588C150.227 268.994 150.637 269.197 151.16 269.197C151.848 269.197 152.35 268.889 152.666 268.271V265.359C152.342 264.762 151.844 264.463 151.172 264.463C150.641 264.463 150.227 264.668 149.93 265.078C149.633 265.488 149.484 266.096 149.484 266.9ZM156.615 270H155.531V263.66H156.615V270ZM155.443 261.979C155.443 261.803 155.496 261.654 155.602 261.533C155.711 261.412 155.871 261.352 156.082 261.352C156.293 261.352 156.453 261.412 156.562 261.533C156.672 261.654 156.727 261.803 156.727 261.979C156.727 262.154 156.672 262.301 156.562 262.418C156.453 262.535 156.293 262.594 156.082 262.594C155.871 262.594 155.711 262.535 155.602 262.418C155.496 262.301 155.443 262.154 155.443 261.979ZM159.826 262.125V263.66H161.01V264.498H159.826V268.43C159.826 268.684 159.879 268.875 159.984 269.004C160.09 269.129 160.27 269.191 160.523 269.191C160.648 269.191 160.82 269.168 161.039 269.121V270C160.754 270.078 160.477 270.117 160.207 270.117C159.723 270.117 159.357 269.971 159.111 269.678C158.865 269.385 158.742 268.969 158.742 268.43V264.498H157.588V263.66H158.742V262.125H159.826ZM163.459 270H162.375V263.66H163.459V270ZM162.287 261.979C162.287 261.803 162.34 261.654 162.445 261.533C162.555 261.412 162.715 261.352 162.926 261.352C163.137 261.352 163.297 261.412 163.406 261.533C163.516 261.654 163.57 261.803 163.57 261.979C163.57 262.154 163.516 262.301 163.406 262.418C163.297 262.535 163.137 262.594 162.926 262.594C162.715 262.594 162.555 262.535 162.445 262.418C162.34 262.301 162.287 262.154 162.287 261.979ZM164.912 266.771C164.912 266.15 165.033 265.592 165.275 265.096C165.521 264.6 165.861 264.217 166.295 263.947C166.732 263.678 167.23 263.543 167.789 263.543C168.652 263.543 169.35 263.842 169.881 264.439C170.416 265.037 170.684 265.832 170.684 266.824V266.9C170.684 267.518 170.564 268.072 170.326 268.564C170.092 269.053 169.754 269.434 169.312 269.707C168.875 269.98 168.371 270.117 167.801 270.117C166.941 270.117 166.244 269.818 165.709 269.221C165.178 268.623 164.912 267.832 164.912 266.848V266.771ZM166.002 266.9C166.002 267.604 166.164 268.168 166.488 268.594C166.816 269.02 167.254 269.232 167.801 269.232C168.352 269.232 168.789 269.018 169.113 268.588C169.438 268.154 169.6 267.549 169.6 266.771C169.6 266.076 169.434 265.514 169.102 265.084C168.773 264.65 168.336 264.434 167.789 264.434C167.254 264.434 166.822 264.646 166.494 265.072C166.166 265.498 166.002 266.107 166.002 266.9ZM173.068 263.66L173.104 264.457C173.588 263.848 174.221 263.543 175.002 263.543C176.342 263.543 177.018 264.299 177.029 265.811V270H175.945V265.805C175.941 265.348 175.836 265.01 175.629 264.791C175.426 264.572 175.107 264.463 174.674 264.463C174.322 264.463 174.014 264.557 173.748 264.744C173.482 264.932 173.275 265.178 173.127 265.482V270H172.043V263.66H173.068ZM182.818 270H181.734V263.66H182.818V270ZM181.646 261.979C181.646 261.803 181.699 261.654 181.805 261.533C181.914 261.412 182.074 261.352 182.285 261.352C182.496 261.352 182.656 261.412 182.766 261.533C182.875 261.654 182.93 261.803 182.93 261.979C182.93 262.154 182.875 262.301 182.766 262.418C182.656 262.535 182.496 262.594 182.285 262.594C182.074 262.594 181.914 262.535 181.805 262.418C181.699 262.301 181.646 262.154 181.646 261.979ZM188.25 268.318C188.25 268.025 188.139 267.799 187.916 267.639C187.697 267.475 187.312 267.334 186.762 267.217C186.215 267.1 185.779 266.959 185.455 266.795C185.135 266.631 184.896 266.436 184.74 266.209C184.588 265.982 184.512 265.713 184.512 265.4C184.512 264.881 184.73 264.441 185.168 264.082C185.609 263.723 186.172 263.543 186.855 263.543C187.574 263.543 188.156 263.729 188.602 264.1C189.051 264.471 189.275 264.945 189.275 265.523H188.186C188.186 265.227 188.059 264.971 187.805 264.756C187.555 264.541 187.238 264.434 186.855 264.434C186.461 264.434 186.152 264.52 185.93 264.691C185.707 264.863 185.596 265.088 185.596 265.365C185.596 265.627 185.699 265.824 185.906 265.957C186.113 266.09 186.486 266.217 187.025 266.338C187.568 266.459 188.008 266.604 188.344 266.771C188.68 266.939 188.928 267.143 189.088 267.381C189.252 267.615 189.334 267.902 189.334 268.242C189.334 268.809 189.107 269.264 188.654 269.607C188.201 269.947 187.613 270.117 186.891 270.117C186.383 270.117 185.934 270.027 185.543 269.848C185.152 269.668 184.846 269.418 184.623 269.098C184.404 268.773 184.295 268.424 184.295 268.049H185.379C185.398 268.412 185.543 268.701 185.812 268.916C186.086 269.127 186.445 269.232 186.891 269.232C187.301 269.232 187.629 269.15 187.875 268.986C188.125 268.818 188.25 268.596 188.25 268.318ZM194.742 263.66L194.771 264.363C195.236 263.816 195.863 263.543 196.652 263.543C197.539 263.543 198.143 263.883 198.463 264.562C198.674 264.258 198.947 264.012 199.283 263.824C199.623 263.637 200.023 263.543 200.484 263.543C201.875 263.543 202.582 264.279 202.605 265.752V270H201.521V265.816C201.521 265.363 201.418 265.025 201.211 264.803C201.004 264.576 200.656 264.463 200.168 264.463C199.766 264.463 199.432 264.584 199.166 264.826C198.9 265.064 198.746 265.387 198.703 265.793V270H197.613V265.846C197.613 264.924 197.162 264.463 196.26 264.463C195.549 264.463 195.062 264.766 194.801 265.371V270H193.717V263.66H194.742ZM206.877 270.117C206.018 270.117 205.318 269.836 204.779 269.273C204.24 268.707 203.971 267.951 203.971 267.006V266.807C203.971 266.178 204.09 265.617 204.328 265.125C204.57 264.629 204.906 264.242 205.336 263.965C205.77 263.684 206.238 263.543 206.742 263.543C207.566 263.543 208.207 263.814 208.664 264.357C209.121 264.9 209.35 265.678 209.35 266.689V267.141H205.055C205.07 267.766 205.252 268.271 205.6 268.658C205.951 269.041 206.396 269.232 206.936 269.232C207.318 269.232 207.643 269.154 207.908 268.998C208.174 268.842 208.406 268.635 208.605 268.377L209.268 268.893C208.736 269.709 207.939 270.117 206.877 270.117ZM206.742 264.434C206.305 264.434 205.938 264.594 205.641 264.914C205.344 265.23 205.16 265.676 205.09 266.25H208.266V266.168C208.234 265.617 208.086 265.191 207.82 264.891C207.555 264.586 207.195 264.434 206.742 264.434ZM212.08 262.125V263.66H213.264V264.498H212.08V268.43C212.08 268.684 212.133 268.875 212.238 269.004C212.344 269.129 212.523 269.191 212.777 269.191C212.902 269.191 213.074 269.168 213.293 269.121V270C213.008 270.078 212.73 270.117 212.461 270.117C211.977 270.117 211.611 269.971 211.365 269.678C211.119 269.385 210.996 268.969 210.996 268.43V264.498H209.842V263.66H210.996V262.125H212.08ZM213.768 260.25H215.982V271.828H213.768V270.938H214.898V261.141H213.768V260.25Z" fill="black"/>
<rect x="297" y="224" width="139" height="70" fill="#CF6F6F"/>
<path d="M332.35 247.141H331.23V256.938H332.35V257.828H330.141V246.25H332.35V247.141ZM335.836 255.232C336.223 255.232 336.561 255.115 336.85 254.881C337.139 254.646 337.299 254.354 337.33 254.002H338.355C338.336 254.365 338.211 254.711 337.98 255.039C337.75 255.367 337.441 255.629 337.055 255.824C336.672 256.02 336.266 256.117 335.836 256.117C334.973 256.117 334.285 255.83 333.773 255.256C333.266 254.678 333.012 253.889 333.012 252.889V252.707C333.012 252.09 333.125 251.541 333.352 251.061C333.578 250.58 333.902 250.207 334.324 249.941C334.75 249.676 335.252 249.543 335.83 249.543C336.541 249.543 337.131 249.756 337.6 250.182C338.072 250.607 338.324 251.16 338.355 251.84H337.33C337.299 251.43 337.143 251.094 336.861 250.832C336.584 250.566 336.24 250.434 335.83 250.434C335.279 250.434 334.852 250.633 334.547 251.031C334.246 251.426 334.096 251.998 334.096 252.748V252.953C334.096 253.684 334.246 254.246 334.547 254.641C334.848 255.035 335.277 255.232 335.836 255.232ZM339.287 252.771C339.287 252.15 339.408 251.592 339.65 251.096C339.896 250.6 340.236 250.217 340.67 249.947C341.107 249.678 341.605 249.543 342.164 249.543C343.027 249.543 343.725 249.842 344.256 250.439C344.791 251.037 345.059 251.832 345.059 252.824V252.9C345.059 253.518 344.939 254.072 344.701 254.564C344.467 255.053 344.129 255.434 343.688 255.707C343.25 255.98 342.746 256.117 342.176 256.117C341.316 256.117 340.619 255.818 340.084 255.221C339.553 254.623 339.287 253.832 339.287 252.848V252.771ZM340.377 252.9C340.377 253.604 340.539 254.168 340.863 254.594C341.191 255.02 341.629 255.232 342.176 255.232C342.727 255.232 343.164 255.018 343.488 254.588C343.812 254.154 343.975 253.549 343.975 252.771C343.975 252.076 343.809 251.514 343.477 251.084C343.148 250.65 342.711 250.434 342.164 250.434C341.629 250.434 341.197 250.646 340.869 251.072C340.541 251.498 340.377 252.107 340.377 252.9ZM346.154 252.777C346.154 251.805 346.385 251.023 346.846 250.434C347.307 249.84 347.91 249.543 348.656 249.543C349.398 249.543 349.986 249.797 350.42 250.305V247H351.504V256H350.508L350.455 255.32C350.021 255.852 349.418 256.117 348.645 256.117C347.91 256.117 347.311 255.816 346.846 255.215C346.385 254.613 346.154 253.828 346.154 252.859V252.777ZM347.238 252.9C347.238 253.619 347.387 254.182 347.684 254.588C347.98 254.994 348.391 255.197 348.914 255.197C349.602 255.197 350.104 254.889 350.42 254.271V251.359C350.096 250.762 349.598 250.463 348.926 250.463C348.395 250.463 347.98 250.668 347.684 251.078C347.387 251.488 347.238 252.096 347.238 252.9ZM355.822 256.117C354.963 256.117 354.264 255.836 353.725 255.273C353.186 254.707 352.916 253.951 352.916 253.006V252.807C352.916 252.178 353.035 251.617 353.273 251.125C353.516 250.629 353.852 250.242 354.281 249.965C354.715 249.684 355.184 249.543 355.688 249.543C356.512 249.543 357.152 249.814 357.609 250.357C358.066 250.9 358.295 251.678 358.295 252.689V253.141H354C354.016 253.766 354.197 254.271 354.545 254.658C354.896 255.041 355.342 255.232 355.881 255.232C356.264 255.232 356.588 255.154 356.854 254.998C357.119 254.842 357.352 254.635 357.551 254.377L358.213 254.893C357.682 255.709 356.885 256.117 355.822 256.117ZM355.688 250.434C355.25 250.434 354.883 250.594 354.586 250.914C354.289 251.23 354.105 251.676 354.035 252.25H357.211V252.168C357.18 251.617 357.031 251.191 356.766 250.891C356.5 250.586 356.141 250.434 355.688 250.434ZM364.002 248.125V249.66H365.186V250.498H364.002V254.43C364.002 254.684 364.055 254.875 364.16 255.004C364.266 255.129 364.445 255.191 364.699 255.191C364.824 255.191 364.996 255.168 365.215 255.121V256C364.93 256.078 364.652 256.117 364.383 256.117C363.898 256.117 363.533 255.971 363.287 255.678C363.041 255.385 362.918 254.969 362.918 254.43V250.498H361.764V249.66H362.918V248.125H364.002ZM366.053 252.771C366.053 252.15 366.174 251.592 366.416 251.096C366.662 250.6 367.002 250.217 367.436 249.947C367.873 249.678 368.371 249.543 368.93 249.543C369.793 249.543 370.49 249.842 371.021 250.439C371.557 251.037 371.824 251.832 371.824 252.824V252.9C371.824 253.518 371.705 254.072 371.467 254.564C371.232 255.053 370.895 255.434 370.453 255.707C370.016 255.98 369.512 256.117 368.941 256.117C368.082 256.117 367.385 255.818 366.85 255.221C366.318 254.623 366.053 253.832 366.053 252.848V252.771ZM367.143 252.9C367.143 253.604 367.305 254.168 367.629 254.594C367.957 255.02 368.395 255.232 368.941 255.232C369.492 255.232 369.93 255.018 370.254 254.588C370.578 254.154 370.74 253.549 370.74 252.771C370.74 252.076 370.574 251.514 370.242 251.084C369.914 250.65 369.477 250.434 368.93 250.434C368.395 250.434 367.963 250.646 367.635 251.072C367.307 251.498 367.143 252.107 367.143 252.9ZM379.225 250.633C379.061 250.605 378.883 250.592 378.691 250.592C377.98 250.592 377.498 250.895 377.244 251.5V256H376.16V249.66H377.215L377.232 250.393C377.588 249.826 378.092 249.543 378.744 249.543C378.955 249.543 379.115 249.57 379.225 249.625V250.633ZM384.141 255.373C383.719 255.869 383.1 256.117 382.283 256.117C381.607 256.117 381.092 255.922 380.736 255.531C380.385 255.137 380.207 254.555 380.203 253.785V249.66H381.287V253.756C381.287 254.717 381.678 255.197 382.459 255.197C383.287 255.197 383.838 254.889 384.111 254.271V249.66H385.195V256H384.164L384.141 255.373ZM387.873 249.66L387.908 250.457C388.393 249.848 389.025 249.543 389.807 249.543C391.146 249.543 391.822 250.299 391.834 251.811V256H390.75V251.805C390.746 251.348 390.641 251.01 390.434 250.791C390.23 250.572 389.912 250.463 389.479 250.463C389.127 250.463 388.818 250.557 388.553 250.744C388.287 250.932 388.08 251.178 387.932 251.482V256H386.848V249.66H387.873ZM397.623 256H396.539V249.66H397.623V256ZM396.451 247.979C396.451 247.803 396.504 247.654 396.609 247.533C396.719 247.412 396.879 247.352 397.09 247.352C397.301 247.352 397.461 247.412 397.57 247.533C397.68 247.654 397.734 247.803 397.734 247.979C397.734 248.154 397.68 248.301 397.57 248.418C397.461 248.535 397.301 248.594 397.09 248.594C396.879 248.594 396.719 248.535 396.609 248.418C396.504 248.301 396.451 248.154 396.451 247.979ZM399.896 256V250.498H398.895V249.66H399.896V249.01C399.896 248.33 400.078 247.805 400.441 247.434C400.805 247.062 401.318 246.877 401.982 246.877C402.232 246.877 402.48 246.91 402.727 246.977L402.668 247.855C402.484 247.82 402.289 247.803 402.082 247.803C401.73 247.803 401.459 247.906 401.268 248.113C401.076 248.316 400.98 248.609 400.98 248.992V249.66H402.334V250.498H400.98V256H399.896ZM318.721 269.232C319.107 269.232 319.445 269.115 319.734 268.881C320.023 268.646 320.184 268.354 320.215 268.002H321.24C321.221 268.365 321.096 268.711 320.865 269.039C320.635 269.367 320.326 269.629 319.939 269.824C319.557 270.02 319.15 270.117 318.721 270.117C317.857 270.117 317.17 269.83 316.658 269.256C316.15 268.678 315.896 267.889 315.896 266.889V266.707C315.896 266.09 316.01 265.541 316.236 265.061C316.463 264.58 316.787 264.207 317.209 263.941C317.635 263.676 318.137 263.543 318.715 263.543C319.426 263.543 320.016 263.756 320.484 264.182C320.957 264.607 321.209 265.16 321.24 265.84H320.215C320.184 265.43 320.027 265.094 319.746 264.832C319.469 264.566 319.125 264.434 318.715 264.434C318.164 264.434 317.736 264.633 317.432 265.031C317.131 265.426 316.98 265.998 316.98 266.748V266.953C316.98 267.684 317.131 268.246 317.432 268.641C317.732 269.035 318.162 269.232 318.721 269.232ZM322.172 266.771C322.172 266.15 322.293 265.592 322.535 265.096C322.781 264.6 323.121 264.217 323.555 263.947C323.992 263.678 324.49 263.543 325.049 263.543C325.912 263.543 326.609 263.842 327.141 264.439C327.676 265.037 327.943 265.832 327.943 266.824V266.9C327.943 267.518 327.824 268.072 327.586 268.564C327.352 269.053 327.014 269.434 326.572 269.707C326.135 269.98 325.631 270.117 325.061 270.117C324.201 270.117 323.504 269.818 322.969 269.221C322.438 268.623 322.172 267.832 322.172 266.848V266.771ZM323.262 266.9C323.262 267.604 323.424 268.168 323.748 268.594C324.076 269.02 324.514 269.232 325.061 269.232C325.611 269.232 326.049 269.018 326.373 268.588C326.697 268.154 326.859 267.549 326.859 266.771C326.859 266.076 326.693 265.514 326.361 265.084C326.033 264.65 325.596 264.434 325.049 264.434C324.514 264.434 324.082 264.646 323.754 265.072C323.426 265.498 323.262 266.107 323.262 266.9ZM330.328 263.66L330.363 264.457C330.848 263.848 331.48 263.543 332.262 263.543C333.602 263.543 334.277 264.299 334.289 265.811V270H333.205V265.805C333.201 265.348 333.096 265.01 332.889 264.791C332.686 264.572 332.367 264.463 331.934 264.463C331.582 264.463 331.273 264.557 331.008 264.744C330.742 264.932 330.535 265.178 330.387 265.482V270H329.303V263.66H330.328ZM335.66 266.777C335.66 265.805 335.891 265.023 336.352 264.434C336.812 263.84 337.416 263.543 338.162 263.543C338.904 263.543 339.492 263.797 339.926 264.305V261H341.01V270H340.014L339.961 269.32C339.527 269.852 338.924 270.117 338.15 270.117C337.416 270.117 336.816 269.816 336.352 269.215C335.891 268.613 335.66 267.828 335.66 266.859V266.777ZM336.744 266.9C336.744 267.619 336.893 268.182 337.189 268.588C337.486 268.994 337.896 269.197 338.42 269.197C339.107 269.197 339.609 268.889 339.926 268.271V265.359C339.602 264.762 339.104 264.463 338.432 264.463C337.9 264.463 337.486 264.668 337.189 265.078C336.893 265.488 336.744 266.096 336.744 266.9ZM343.875 270H342.791V263.66H343.875V270ZM342.703 261.979C342.703 261.803 342.756 261.654 342.861 261.533C342.971 261.412 343.131 261.352 343.342 261.352C343.553 261.352 343.713 261.412 343.822 261.533C343.932 261.654 343.986 261.803 343.986 261.979C343.986 262.154 343.932 262.301 343.822 262.418C343.713 262.535 343.553 262.594 343.342 262.594C343.131 262.594 342.971 262.535 342.861 262.418C342.756 262.301 342.703 262.154 342.703 261.979ZM347.086 262.125V263.66H348.27V264.498H347.086V268.43C347.086 268.684 347.139 268.875 347.244 269.004C347.35 269.129 347.529 269.191 347.783 269.191C347.908 269.191 348.08 269.168 348.299 269.121V270C348.014 270.078 347.736 270.117 347.467 270.117C346.982 270.117 346.617 269.971 346.371 269.678C346.125 269.385 346.002 268.969 346.002 268.43V264.498H344.848V263.66H346.002V262.125H347.086ZM350.719 270H349.635V263.66H350.719V270ZM349.547 261.979C349.547 261.803 349.6 261.654 349.705 261.533C349.814 261.412 349.975 261.352 350.186 261.352C350.396 261.352 350.557 261.412 350.666 261.533C350.775 261.654 350.83 261.803 350.83 261.979C350.83 262.154 350.775 262.301 350.666 262.418C350.557 262.535 350.396 262.594 350.186 262.594C349.975 262.594 349.814 262.535 349.705 262.418C349.6 262.301 349.547 262.154 349.547 261.979ZM352.172 266.771C352.172 266.15 352.293 265.592 352.535 265.096C352.781 264.6 353.121 264.217 353.555 263.947C353.992 263.678 354.49 263.543 355.049 263.543C355.912 263.543 356.609 263.842 357.141 264.439C357.676 265.037 357.943 265.832 357.943 266.824V266.9C357.943 267.518 357.824 268.072 357.586 268.564C357.352 269.053 357.014 269.434 356.572 269.707C356.135 269.98 355.631 270.117 355.061 270.117C354.201 270.117 353.504 269.818 352.969 269.221C352.438 268.623 352.172 267.832 352.172 266.848V266.771ZM353.262 266.9C353.262 267.604 353.424 268.168 353.748 268.594C354.076 269.02 354.514 269.232 355.061 269.232C355.611 269.232 356.049 269.018 356.373 268.588C356.697 268.154 356.859 267.549 356.859 266.771C356.859 266.076 356.693 265.514 356.361 265.084C356.033 264.65 355.596 264.434 355.049 264.434C354.514 264.434 354.082 264.646 353.754 265.072C353.426 265.498 353.262 266.107 353.262 266.9ZM360.328 263.66L360.363 264.457C360.848 263.848 361.48 263.543 362.262 263.543C363.602 263.543 364.277 264.299 364.289 265.811V270H363.205V265.805C363.201 265.348 363.096 265.01 362.889 264.791C362.686 264.572 362.367 264.463 361.934 264.463C361.582 264.463 361.273 264.557 361.008 264.744C360.742 264.932 360.535 265.178 360.387 265.482V270H359.303V263.66H360.328ZM370.078 270H368.994V263.66H370.078V270ZM368.906 261.979C368.906 261.803 368.959 261.654 369.064 261.533C369.174 261.412 369.334 261.352 369.545 261.352C369.756 261.352 369.916 261.412 370.025 261.533C370.135 261.654 370.189 261.803 370.189 261.979C370.189 262.154 370.135 262.301 370.025 262.418C369.916 262.535 369.756 262.594 369.545 262.594C369.334 262.594 369.174 262.535 369.064 262.418C368.959 262.301 368.906 262.154 368.906 261.979ZM375.51 268.318C375.51 268.025 375.398 267.799 375.176 267.639C374.957 267.475 374.572 267.334 374.021 267.217C373.475 267.1 373.039 266.959 372.715 266.795C372.395 266.631 372.156 266.436 372 266.209C371.848 265.982 371.771 265.713 371.771 265.4C371.771 264.881 371.99 264.441 372.428 264.082C372.869 263.723 373.432 263.543 374.115 263.543C374.834 263.543 375.416 263.729 375.861 264.1C376.311 264.471 376.535 264.945 376.535 265.523H375.445C375.445 265.227 375.318 264.971 375.064 264.756C374.814 264.541 374.498 264.434 374.115 264.434C373.721 264.434 373.412 264.52 373.189 264.691C372.967 264.863 372.855 265.088 372.855 265.365C372.855 265.627 372.959 265.824 373.166 265.957C373.373 266.09 373.746 266.217 374.285 266.338C374.828 266.459 375.268 266.604 375.604 266.771C375.939 266.939 376.188 267.143 376.348 267.381C376.512 267.615 376.594 267.902 376.594 268.242C376.594 268.809 376.367 269.264 375.914 269.607C375.461 269.947 374.873 270.117 374.15 270.117C373.643 270.117 373.193 270.027 372.803 269.848C372.412 269.668 372.105 269.418 371.883 269.098C371.664 268.773 371.555 268.424 371.555 268.049H372.639C372.658 268.412 372.803 268.701 373.072 268.916C373.346 269.127 373.705 269.232 374.15 269.232C374.561 269.232 374.889 269.15 375.135 268.986C375.385 268.818 375.51 268.596 375.51 268.318ZM379.031 263.66L379.066 264.457C379.551 263.848 380.184 263.543 380.965 263.543C382.305 263.543 382.98 264.299 382.992 265.811V270H381.908V265.805C381.904 265.348 381.799 265.01 381.592 264.791C381.389 264.572 381.07 264.463 380.637 264.463C380.285 264.463 379.977 264.557 379.711 264.744C379.445 264.932 379.238 265.178 379.09 265.482V270H378.006V263.66H379.031ZM384.234 263.871L383.619 263.449C383.982 262.941 384.17 262.406 384.182 261.844V261H385.254V261.762C385.25 262.152 385.152 262.543 384.961 262.934C384.773 263.32 384.531 263.633 384.234 263.871ZM388.031 262.125V263.66H389.215V264.498H388.031V268.43C388.031 268.684 388.084 268.875 388.189 269.004C388.295 269.129 388.475 269.191 388.729 269.191C388.854 269.191 389.025 269.168 389.244 269.121V270C388.959 270.078 388.682 270.117 388.412 270.117C387.928 270.117 387.562 269.971 387.316 269.678C387.07 269.385 386.947 268.969 386.947 268.43V264.498H385.793V263.66H386.947V262.125H388.031ZM394.482 263.66L394.512 264.363C394.977 263.816 395.604 263.543 396.393 263.543C397.279 263.543 397.883 263.883 398.203 264.562C398.414 264.258 398.688 264.012 399.023 263.824C399.363 263.637 399.764 263.543 400.225 263.543C401.615 263.543 402.322 264.279 402.346 265.752V270H401.262V265.816C401.262 265.363 401.158 265.025 400.951 264.803C400.744 264.576 400.396 264.463 399.908 264.463C399.506 264.463 399.172 264.584 398.906 264.826C398.641 265.064 398.486 265.387 398.443 265.793V270H397.354V265.846C397.354 264.924 396.902 264.463 396 264.463C395.289 264.463 394.803 264.766 394.541 265.371V270H393.457V263.66H394.482ZM406.617 270.117C405.758 270.117 405.059 269.836 404.52 269.273C403.98 268.707 403.711 267.951 403.711 267.006V266.807C403.711 266.178 403.83 265.617 404.068 265.125C404.311 264.629 404.646 264.242 405.076 263.965C405.51 263.684 405.979 263.543 406.482 263.543C407.307 263.543 407.947 263.814 408.404 264.357C408.861 264.9 409.09 265.678 409.09 266.689V267.141H404.795C404.811 267.766 404.992 268.271 405.34 268.658C405.691 269.041 406.137 269.232 406.676 269.232C407.059 269.232 407.383 269.154 407.648 268.998C407.914 268.842 408.146 268.635 408.346 268.377L409.008 268.893C408.477 269.709 407.68 270.117 406.617 270.117ZM406.482 264.434C406.045 264.434 405.678 264.594 405.381 264.914C405.084 265.23 404.9 265.676 404.83 266.25H408.006V266.168C407.975 265.617 407.826 265.191 407.561 264.891C407.295 264.586 406.936 264.434 406.482 264.434ZM411.82 262.125V263.66H413.004V264.498H411.82V268.43C411.82 268.684 411.873 268.875 411.979 269.004C412.084 269.129 412.264 269.191 412.518 269.191C412.643 269.191 412.814 269.168 413.033 269.121V270C412.748 270.078 412.471 270.117 412.201 270.117C411.717 270.117 411.352 269.971 411.105 269.678C410.859 269.385 410.736 268.969 410.736 268.43V264.498H409.582V263.66H410.736V262.125H411.82ZM413.508 260.25H415.723V271.828H413.508V270.938H414.639V261.141H413.508V260.25Z" fill="black"/>
</svg>
